<?xml version="1.0" standalone="no"?>
<!DOCTYPE svg PUBLIC "-//W3C//DTD SVG 20010904//EN"
 "http://www.w3.org/TR/2001/REC-SVG-20010904/DTD/svg10.dtd">
<svg version="1.0" xmlns="http://www.w3.org/2000/svg"
 width="400.000000pt" height="400.000000pt" viewBox="0 0 400.000000 400.000000"
 preserveAspectRatio="xMidYMid meet">
<metadata>
Created by potrace 1.11, written by Peter Selinger 2001-2013
</metadata>
<g transform="translate(0.000000,400.000000) scale(0.100000,-0.100000)"
fill="#000000" stroke="none">
<path d="M1807 3993 c-13 -13 -7 -25 7 -14 8 7 17 8 20 3 3 -6 -4 -16 -17 -25
-16 -10 -42 -13 -97 -10 -41 3 -86 0 -100 -5 l-25 -10 33 -8 33 -7 -21 -21
c-11 -12 -20 -27 -20 -32 0 -15 -89 -134 -100 -134 -17 0 -90 -72 -90 -89 0
-9 -15 -35 -34 -58 -53 -67 -142 -259 -156 -335 -7 -37 -10 -71 -7 -75 3 -5 6
-40 7 -79 2 -75 16 -134 31 -134 6 0 8 -8 4 -19 -3 -10 4 -65 15 -122 26 -134
27 -199 3 -199 -10 0 9 -13 42 -28 33 -15 72 -35 87 -45 38 -26 63 -15 77 36
18 62 40 99 75 126 17 14 25 18 19 11 -19 -21 -15 -35 5 -18 9 9 28 19 41 23
17 5 20 9 11 15 -10 6 -7 14 13 34 24 24 24 26 6 31 -10 4 -24 3 -30 -1 -8 -5
-9 -3 -4 7 4 8 -1 5 -12 -6 -11 -11 -19 -21 -18 -23 2 -2 -12 -18 -30 -35 -18
-18 -39 -46 -48 -62 -20 -40 -58 -74 -64 -57 -3 6 -9 10 -14 6 -14 -8 -11 14
7 48 9 16 11 27 5 24 -15 -9 -14 -4 3 30 8 15 13 31 10 36 -8 12 6 48 18 48 6
0 8 -11 3 -27 -6 -27 -6 -27 9 -8 19 25 20 8 1 -25 -8 -14 -14 -36 -15 -50 0
-15 -6 -32 -12 -40 -11 -12 -10 -12 3 -2 9 6 21 30 28 52 7 23 18 40 26 40 8
0 15 4 15 9 0 5 3 18 7 28 6 16 5 17 -12 3 -11 -9 -16 -10 -11 -2 4 6 2 12 -3
12 -14 0 -14 57 -1 65 7 4 9 -2 4 -19 -9 -36 5 -33 17 4 6 17 15 30 20 30 5 0
9 8 9 18 0 9 5 24 10 32 11 15 9 -10 -4 -63 -3 -12 2 -6 12 14 10 20 24 44 31
53 12 14 10 16 -10 16 -19 0 -21 2 -9 10 8 5 11 10 7 10 -5 0 5 12 21 28 29
26 30 30 28 105 -2 43 0 80 4 82 11 7 20 -21 20 -61 0 -42 14 -44 28 -5 6 16
20 34 31 41 12 6 21 16 21 23 0 7 8 22 18 33 27 29 35 54 14 47 -16 -5 -16 -5
0 12 16 17 73 31 63 15 -10 -16 20 -17 38 -2 10 9 17 11 17 4 0 -6 7 -9 16 -5
14 5 16 1 12 -20 -3 -15 -2 -27 2 -27 10 0 80 70 80 80 0 8 31 20 64 24 10 2
22 10 27 18 8 14 38 15 130 5 20 -2 21 -27 0 -51 -14 -17 -11 -17 22 3 38 23
51 19 20 -6 -11 -9 -12 -12 -3 -7 8 4 23 14 33 22 16 14 17 12 11 -30 -5 -32
-3 -48 7 -53 9 -6 11 -4 6 8 -7 20 11 87 24 87 6 0 8 -18 5 -42 l-5 -42 25 31
c14 18 31 30 42 28 9 -2 23 -4 30 -4 7 -1 10 -5 7 -11 -3 -5 -1 -10 6 -10 6 0
9 -8 6 -20 -3 -11 -1 -20 4 -20 5 0 9 4 9 8 0 5 7 17 15 28 11 14 15 15 14 4
-4 -39 1 -41 33 -19 17 13 28 18 24 11 -5 -8 0 -12 13 -12 12 0 30 -9 40 -19
13 -13 21 -16 24 -8 3 7 11 -3 19 -22 11 -25 17 -29 21 -17 4 9 4 23 1 31 -4
8 -2 15 4 15 14 0 23 -28 12 -35 -6 -4 -10 -14 -10 -23 1 -29 27 13 35 56 6
35 19 51 39 52 4 0 5 -7 2 -16 -3 -8 -2 -12 4 -9 5 3 12 -5 16 -19 5 -21 9
-23 24 -14 13 9 23 7 43 -8 15 -10 27 -23 27 -29 0 -5 8 -19 17 -30 14 -18 15
-18 9 -2 -3 11 1 28 10 40 l16 22 -5 -22 c-3 -15 -1 -20 9 -16 8 3 14 9 14 13
0 5 15 7 33 6 17 -1 38 2 45 7 8 7 12 5 12 -6 0 -8 7 -20 16 -27 13 -12 14 -8
8 41 l-6 54 20 -20 c22 -22 41 -72 23 -61 -17 11 -13 -20 4 -34 8 -7 15 -19
15 -26 0 -8 5 -14 11 -14 5 0 7 -4 4 -10 -7 -11 44 -84 53 -76 2 3 -3 24 -12
47 -22 54 -15 61 9 10 10 -22 15 -49 12 -61 -3 -11 -1 -20 3 -20 5 0 12 -14
15 -31 5 -23 10 -28 16 -18 11 19 19 8 25 -37 3 -22 12 -53 20 -71 8 -17 14
-36 14 -42 0 -26 18 -8 23 22 4 32 -9 77 -24 77 -5 0 -7 22 -6 49 1 27 6 49
11 48 5 -1 11 12 13 28 4 32 -29 109 -42 97 -4 -4 -6 -1 -4 6 7 21 23 17 34
-7 11 -24 31 -22 29 3 -2 12 3 15 18 10 15 -5 12 4 -16 44 -34 46 -39 75 -9
51 26 -22 13 9 -17 41 -17 18 -28 35 -25 38 3 3 11 -3 19 -13 7 -10 16 -14 19
-9 7 11 -31 74 -44 74 -5 0 -9 5 -9 10 0 7 7 7 20 0 24 -13 44 -4 36 17 -4 10
-2 13 8 10 9 -4 13 -1 10 7 -3 7 -25 21 -50 31 -29 12 -50 28 -57 44 -16 36
-109 161 -119 161 -5 0 -7 4 -4 9 6 10 -24 25 -32 16 -3 -3 1 -5 8 -5 7 0 11
-3 8 -6 -9 -8 -82 40 -104 69 -11 13 -32 27 -47 31 -16 4 -44 22 -63 41 -19
19 -40 35 -46 35 -6 0 -27 10 -46 22 -19 12 -46 23 -59 24 -14 2 -30 7 -36 12
-7 5 -46 16 -87 23 -41 7 -97 23 -125 34 -48 21 -65 22 -366 24 -174 0 -319
-2 -322 -6z m648 -13 c3 -5 15 -10 26 -10 11 0 18 -4 15 -9 -7 -10 -66 9 -66
21 0 11 18 10 25 -2z m-555 -19 c0 -6 -4 -13 -10 -16 -5 -3 -10 1 -10 9 0 9 5
16 10 16 6 0 10 -4 10 -9z m215 -501 c-28 -12 -37 -12 -30 0 3 6 16 10 28 9
21 0 21 -1 2 -9z m642 -26 c-3 -3 -12 -4 -19 -1 -8 3 -5 6 6 6 11 1 17 -2 13
-5z m-827 -35 c-7 -11 -14 -18 -17 -15 -3 3 0 12 7 21 18 21 23 19 10 -6z m70
-19 c-12 -16 -24 -30 -26 -30 -7 0 5 20 24 43 24 27 25 20 2 -13z m-70 -40
c-24 -15 -37 -11 -16 5 11 8 22 12 25 9 3 -3 -1 -9 -9 -14z m725 -19 c-3 -5
-1 -12 5 -16 5 -3 10 -11 10 -18 0 -7 -7 -5 -16 5 -14 14 -13 38 2 38 3 0 3
-4 -1 -9z m275 -16 c0 -8 -2 -15 -4 -15 -2 0 -6 7 -10 15 -3 8 -1 15 4 15 6 0
10 -7 10 -15z m-1260 -45 c-12 -8 -12 -10 -1 -10 8 0 12 -3 8 -6 -9 -9 -28 6
-22 17 4 5 12 9 18 9 7 0 6 -4 -3 -10z m1599 -65 c1 -23 -2 -26 -9 -15 -5 8
-9 31 -9 50 0 29 2 31 9 15 5 -11 9 -33 9 -50z m-76 17 c14 -22 22 -44 18 -51
-6 -9 -11 -8 -21 4 -7 8 -9 15 -6 15 4 0 -2 13 -13 29 -11 15 -18 31 -14 35 9
9 8 10 36 -32z m132 8 c10 -11 14 -20 8 -20 -5 0 -18 9 -28 20 -10 11 -14 20
-8 20 5 0 18 -9 28 -20z m-1680 0 c-3 -5 -2 -10 3 -10 6 0 5 -10 -1 -25 -13
-28 -27 -33 -27 -9 0 8 -4 12 -10 9 -13 -8 0 28 14 37 16 11 28 10 21 -2z m6
-73 c-10 -9 -11 -8 -5 6 3 10 9 15 12 12 3 -3 0 -11 -7 -18z m1629 -72 c0 -8
-2 -15 -4 -15 -2 0 -6 7 -10 15 -3 8 -1 15 4 15 6 0 10 -7 10 -15z m-1670 -41
l-11 -29 25 24 c14 14 26 21 26 16 0 -12 -67 -75 -80 -75 -17 0 -3 49 22 75
28 29 32 26 18 -11z m-50 -2 c0 -5 -8 -17 -18 -28 -9 -10 -23 -30 -29 -44 -6
-14 -12 -19 -12 -12 -1 16 15 47 37 73 18 21 22 23 22 11z m-65 -121 c-3 -6
-11 -11 -17 -11 -6 0 -6 6 2 15 14 17 26 13 15 -4z m-5 -25 c0 -3 -4 -8 -10
-11 -5 -3 -10 -1 -10 4 0 6 5 11 10 11 6 0 10 -2 10 -4z m-50 -201 c-7 -9 -15
-13 -17 -11 -7 7 7 26 19 26 6 0 6 -6 -2 -15z"/>
<path d="M1560 3920 c0 -5 7 -7 15 -4 8 4 15 8 15 10 0 2 -7 4 -15 4 -8 0 -15
-4 -15 -10z"/>
<path d="M2560 3265 c-11 -13 -10 -14 4 -9 9 3 16 10 16 15 0 13 -6 11 -20 -6z"/>
<path d="M2510 3241 c0 -5 -8 -12 -17 -14 -14 -4 -13 -5 4 -6 24 -1 39 14 23
24 -5 3 -10 2 -10 -4z"/>
<path d="M1835 3218 c-10 -26 -2 -43 12 -26 7 8 8 19 3 28 -8 12 -10 12 -15
-2z"/>
<path d="M2966 3185 c-9 -13 -16 -32 -16 -42 0 -16 1 -15 13 2 13 19 29 65 22
65 -1 0 -10 -11 -19 -25z"/>
<path d="M3000 3153 c0 -14 -2 -15 -9 -4 -12 19 -22 -1 -19 -42 1 -18 7 -34
13 -34 7 0 12 5 12 11 0 6 3 28 7 49 4 20 4 37 1 37 -3 0 -5 -8 -5 -17z"/>
<path d="M3050 3128 c0 -5 -4 -6 -10 -3 -20 12 -9 -28 12 -47 16 -14 30 -17
52 -12 43 9 44 11 10 42 -31 27 -64 38 -64 20z"/>
<path d="M2370 3126 c0 -2 8 -10 18 -17 15 -13 16 -12 3 4 -13 16 -21 21 -21
13z"/>
<path d="M1665 2989 c-4 -6 -5 -12 -2 -15 2 -3 7 2 10 11 7 17 1 20 -8 4z"/>
<path d="M3330 2981 c0 -6 4 -13 10 -16 6 -3 7 1 4 9 -7 18 -14 21 -14 7z"/>
<path d="M3320 2954 c0 -6 7 -19 15 -30 8 -10 14 -14 14 -9 0 6 -6 19 -14 29
-8 11 -15 15 -15 10z"/>
<path d="M1645 2930 c-3 -5 -2 -10 4 -10 5 0 13 5 16 10 3 6 2 10 -4 10 -5 0
-13 -4 -16 -10z"/>
<path d="M1667 2864 c-22 -14 -36 -28 -33 -31 3 -3 17 2 30 11 14 9 36 17 48
17 17 1 19 2 5 6 -9 2 -15 9 -12 14 8 13 5 11 -38 -17z"/>
<path d="M3270 2868 c0 -9 5 -20 10 -23 13 -8 13 5 0 25 -8 13 -10 13 -10 -2z"/>
<path d="M1695 2829 c-4 -6 -14 -8 -24 -4 -12 5 -13 3 -4 -6 9 -9 17 -8 34 5
13 9 18 16 12 16 -7 0 -15 -5 -18 -11z"/>
<path d="M1698 2758 c9 -9 15 -9 24 0 9 9 7 12 -12 12 -19 0 -21 -3 -12 -12z"/>
<path d="M3250 2762 c0 -4 6 -14 12 -20 10 -10 10 -15 0 -21 -11 -7 -11 -9 1
-14 8 -3 21 7 32 25 18 31 18 31 -4 25 -11 -3 -21 -1 -21 4 0 5 -4 9 -10 9 -5
0 -10 -4 -10 -8z"/>
<path d="M2088 2403 c-9 -39 2 -53 38 -49 19 2 38 7 42 11 4 4 -3 4 -16 1 -20
-7 -21 -5 -12 18 9 25 -3 46 -15 26 -5 -8 -11 -8 -20 0 -9 8 -14 6 -17 -7z"/>
<path d="M2053 2399 c-6 -6 -9 -18 -6 -25 8 -23 21 -16 21 11 0 29 0 29 -15
14z"/>
<path d="M2790 2395 c-10 -13 -9 -15 9 -15 14 0 25 -9 31 -25 6 -17 17 -25 32
-24 13 0 17 3 11 6 -7 2 -13 9 -13 15 0 6 9 3 19 -6 12 -11 25 -15 33 -10 7 5
20 7 29 6 21 -4 32 24 19 46 -8 14 -9 12 -10 -11 0 -19 -4 -27 -12 -24 -7 2
-13 14 -12 27 1 20 -3 22 -35 16 -71 -11 -76 -11 -73 2 3 17 -13 15 -28 -3z"/>
<path d="M2780 2340 c-13 -8 -12 -10 3 -10 9 0 17 5 17 10 0 12 -1 12 -20 0z"/>
<path d="M2438 1753 c7 -3 16 -2 19 1 4 3 -2 6 -13 5 -11 0 -14 -3 -6 -6z"/>
<path d="M2220 1550 c36 -22 68 -40 72 -40 3 0 1 11 -5 24 -8 16 -28 29 -63
40 -75 24 -76 20 -4 -24z"/>
<path d="M2800 1562 c-8 -3 -18 -11 -23 -18 -4 -7 -15 -10 -25 -7 -9 3 -14 2
-9 -2 4 -5 0 -17 -10 -27 -30 -33 9 -21 51 17 39 35 44 47 16 37z"/>
<path d="M2320 1500 c0 -5 5 -10 11 -10 5 0 7 5 4 10 -3 6 -8 10 -11 10 -2 0
-4 -4 -4 -10z"/>
<path d="M1329 1431 c-145 -29 -152 -34 -180 -141 -16 -65 -64 -155 -125 -237
-30 -39 -54 -76 -54 -83 0 -6 -37 -29 -83 -51 -52 -25 -103 -59 -138 -93 -47
-46 -149 -106 -178 -106 -4 0 -34 -19 -67 -42 -47 -34 -155 -94 -184 -103 -20
-6 -66 -31 -72 -40 -4 -5 -8 -6 -8 -2 0 4 -10 -1 -22 -13 -23 -21 -43 -26 -52
-11 -4 5 3 7 14 4 24 -6 27 12 4 21 -9 3 -36 6 -60 6 -24 0 -44 5 -44 10 0 6
-18 10 -40 10 l-39 0 -1 -280 0 -280 1300 0 c1116 0 1299 2 1294 14 -3 8 -33
38 -67 68 -34 29 -114 103 -177 163 -115 111 -156 137 -269 176 -63 22 -156
90 -176 129 -8 15 -25 34 -38 43 -13 9 -33 31 -44 50 -19 31 -19 35 -4 44 14
9 5 22 -60 84 -137 133 -245 266 -288 353 -55 112 -59 142 -28 209 14 30 28
69 32 86 6 30 5 31 -27 30 -18 -1 -71 -9 -119 -18z"/>
<path d="M2869 1066 l-74 -101 1 -70 c0 -38 8 -104 18 -145 31 -123 25 -397
-13 -692 l-7 -58 593 0 c326 0 593 3 593 6 0 4 -13 53 -30 109 -28 97 -124
311 -156 346 -7 8 -14 20 -14 26 0 33 -193 178 -297 223 -36 15 -53 28 -53 40
0 43 -178 205 -363 332 l-125 85 -73 -101z"/>
<path d="M2065 985 c17 -14 50 -32 75 -42 25 -9 75 -28 111 -43 158 -66 286
-66 433 -1 68 30 52 36 -30 12 -106 -31 -208 -33 -344 -7 -8 2 -28 8 -43 15
-16 6 -31 11 -33 11 -3 0 -42 18 -86 40 -93 46 -129 52 -83 15z"/>
<path d="M180 552 c0 -5 7 -13 16 -16 10 -4 14 -1 12 6 -5 15 -28 23 -28 10z"/>
</g>
</svg>
